<svg xmlns="http://www.w3.org/2000/svg" xmlns:xlink="http://www.w3.org/1999/xlink" width="1306" zoomAndPan="magnify" viewBox="0 0 979.5 268.499992" height="358" preserveAspectRatio="xMidYMid meet" version="1.2"><defs><clipPath id="afd79435ef"><path d="M 161 34 L 215.511719 34 L 215.511719 89 L 161 89 Z M 161 34 "/></clipPath><clipPath id="d30b09c5d9"><path d="M 0.660156 186 L 55 186 L 55 242 L 0.660156 242 Z M 0.660156 186 "/></clipPath></defs><g id="a129269cda"><g style="fill:#17559d;fill-opacity:1;"><g transform="translate(271.209042, 128.377145)"><path style="stroke:none" d="M 65.140625 -13.546875 L 65.140625 0 L 8.65625 0 L 8.65625 -72.96875 L 63.796875 -72.96875 L 63.796875 -59.40625 L 25.4375 -59.40625 L 25.4375 -43.5625 L 59.3125 -43.5625 L 59.3125 -30.4375 L 25.4375 -30.4375 L 25.4375 -13.546875 Z M 65.140625 -13.546875 "/></g></g><g style="fill:#17559d;fill-opacity:1;"><g transform="translate(340.10119, 128.377145)"><path style="stroke:none" d="M 78.796875 -72.96875 L 47.21875 0 L 30.546875 0 L -0.9375 -72.96875 L 17.296875 -72.96875 L 39.5 -20.84375 L 62.015625 -72.96875 Z M 78.796875 -72.96875 "/></g></g><g style="fill:#17559d;fill-opacity:1;"><g transform="translate(415.455185, 128.377145)"><path style="stroke:none" d="M 43.984375 1.25 C 36.410156 1.25 29.582031 -0.378906 23.5 -3.640625 C 17.425781 -6.910156 12.664062 -11.410156 9.21875 -17.140625 C 5.78125 -22.878906 4.0625 -29.328125 4.0625 -36.484375 C 4.0625 -43.640625 5.78125 -50.082031 9.21875 -55.8125 C 12.664062 -61.550781 17.425781 -66.050781 23.5 -69.3125 C 29.582031 -72.582031 36.410156 -74.21875 43.984375 -74.21875 C 51.554688 -74.21875 58.363281 -72.582031 64.40625 -69.3125 C 70.457031 -66.050781 75.21875 -61.550781 78.6875 -55.8125 C 82.164062 -50.082031 83.90625 -43.640625 83.90625 -36.484375 C 83.90625 -29.328125 82.164062 -22.878906 78.6875 -17.140625 C 75.21875 -11.410156 70.457031 -6.910156 64.40625 -3.640625 C 58.363281 -0.378906 51.554688 1.25 43.984375 1.25 Z M 43.984375 -13.140625 C 48.296875 -13.140625 52.1875 -14.128906 55.65625 -16.109375 C 59.132812 -18.085938 61.863281 -20.847656 63.84375 -24.390625 C 65.820312 -27.929688 66.8125 -31.960938 66.8125 -36.484375 C 66.8125 -40.992188 65.820312 -45.019531 63.84375 -48.5625 C 61.863281 -52.113281 59.132812 -54.878906 55.65625 -56.859375 C 52.1875 -58.835938 48.296875 -59.828125 43.984375 -59.828125 C 39.679688 -59.828125 35.789062 -58.835938 32.3125 -56.859375 C 28.832031 -54.878906 26.101562 -52.113281 24.125 -48.5625 C 22.144531 -45.019531 21.15625 -40.992188 21.15625 -36.484375 C 21.15625 -31.960938 22.144531 -27.929688 24.125 -24.390625 C 26.101562 -20.847656 28.832031 -18.085938 32.3125 -16.109375 C 35.789062 -14.128906 39.679688 -13.140625 43.984375 -13.140625 Z M 43.984375 -13.140625 "/></g></g><g style="fill:#17559d;fill-opacity:1;"><g transform="translate(503.420377, 128.377145)"><path style="stroke:none" d="M 8.65625 -72.96875 L 25.53125 -72.96875 L 25.53125 -13.765625 L 62.125 -13.765625 L 62.125 0 L 8.65625 0 Z M 8.65625 -72.96875 "/></g></g><g style="fill:#17559d;fill-opacity:1;"><g transform="translate(565.433754, 128.377145)"><path style="stroke:none" d="M 41.0625 1.25 C 30.644531 1.25 22.535156 -1.628906 16.734375 -7.390625 C 10.929688 -13.160156 8.03125 -21.398438 8.03125 -32.109375 L 8.03125 -72.96875 L 24.90625 -72.96875 L 24.90625 -32.734375 C 24.90625 -19.671875 30.328125 -13.140625 41.171875 -13.140625 C 46.453125 -13.140625 50.484375 -14.71875 53.265625 -17.875 C 56.046875 -21.039062 57.4375 -25.992188 57.4375 -32.734375 L 57.4375 -72.96875 L 74.109375 -72.96875 L 74.109375 -32.109375 C 74.109375 -21.398438 71.207031 -13.160156 65.40625 -7.390625 C 59.601562 -1.628906 51.488281 1.25 41.0625 1.25 Z M 41.0625 1.25 "/></g></g><g style="fill:#17559d;fill-opacity:1;"><g transform="translate(646.311679, 128.377145)"><path style="stroke:none" d="M 23.765625 -59.203125 L 0.421875 -59.203125 L 0.421875 -72.96875 L 64 -72.96875 L 64 -59.203125 L 40.65625 -59.203125 L 40.65625 0 L 23.765625 0 Z M 23.765625 -59.203125 "/></g></g><g style="fill:#17559d;fill-opacity:1;"><g transform="translate(710.722199, 128.377145)"><path style="stroke:none" d="M 8.65625 -72.96875 L 25.53125 -72.96875 L 25.53125 0 L 8.65625 0 Z M 8.65625 -72.96875 "/></g></g><g style="fill:#17559d;fill-opacity:1;"><g transform="translate(744.907735, 128.377145)"><path style="stroke:none" d="M 43.984375 1.25 C 36.410156 1.25 29.582031 -0.378906 23.5 -3.640625 C 17.425781 -6.910156 12.664062 -11.410156 9.21875 -17.140625 C 5.78125 -22.878906 4.0625 -29.328125 4.0625 -36.484375 C 4.0625 -43.640625 5.78125 -50.082031 9.21875 -55.8125 C 12.664062 -61.550781 17.425781 -66.050781 23.5 -69.3125 C 29.582031 -72.582031 36.410156 -74.21875 43.984375 -74.21875 C 51.554688 -74.21875 58.363281 -72.582031 64.40625 -69.3125 C 70.457031 -66.050781 75.21875 -61.550781 78.6875 -55.8125 C 82.164062 -50.082031 83.90625 -43.640625 83.90625 -36.484375 C 83.90625 -29.328125 82.164062 -22.878906 78.6875 -17.140625 C 75.21875 -11.410156 70.457031 -6.910156 64.40625 -3.640625 C 58.363281 -0.378906 51.554688 1.25 43.984375 1.25 Z M 43.984375 -13.140625 C 48.296875 -13.140625 52.1875 -14.128906 55.65625 -16.109375 C 59.132812 -18.085938 61.863281 -20.847656 63.84375 -24.390625 C 65.820312 -27.929688 66.8125 -31.960938 66.8125 -36.484375 C 66.8125 -40.992188 65.820312 -45.019531 63.84375 -48.5625 C 61.863281 -52.113281 59.132812 -54.878906 55.65625 -56.859375 C 52.1875 -58.835938 48.296875 -59.828125 43.984375 -59.828125 C 39.679688 -59.828125 35.789062 -58.835938 32.3125 -56.859375 C 28.832031 -54.878906 26.101562 -52.113281 24.125 -48.5625 C 22.144531 -45.019531 21.15625 -40.992188 21.15625 -36.484375 C 21.15625 -31.960938 22.144531 -27.929688 24.125 -24.390625 C 26.101562 -20.847656 28.832031 -18.085938 32.3125 -16.109375 C 35.789062 -14.128906 39.679688 -13.140625 43.984375 -13.140625 Z M 43.984375 -13.140625 "/></g></g><g style="fill:#17559d;fill-opacity:1;"><g transform="translate(832.872926, 128.377145)"><path style="stroke:none" d="M 75.5625 -72.96875 L 75.5625 0 L 61.703125 0 L 25.328125 -44.296875 L 25.328125 0 L 8.65625 0 L 8.65625 -72.96875 L 22.625 -72.96875 L 58.890625 -28.671875 L 58.890625 -72.96875 Z M 75.5625 -72.96875 "/></g></g><g style="fill:#0e0005;fill-opacity:1;"><g transform="translate(267.470251, 231.309045)"><path style="stroke:none" d="M 11.640625 -44.640625 L 11.640625 0 L 4.90625 0 L 4.90625 -44.640625 Z M 11.640625 -44.640625 "/></g></g><g style="fill:#0e0005;fill-opacity:1;"><g transform="translate(290.032547, 231.309045)"><path style="stroke:none" d="M 4.90625 -44.640625 L 13.078125 -44.640625 L 27.296875 -9.9375 L 27.8125 -9.9375 L 42.03125 -44.640625 L 50.203125 -44.640625 L 50.203125 0 L 43.796875 0 L 43.796875 -32.3125 L 43.390625 -32.3125 L 30.21875 -0.0625 L 24.890625 -0.0625 L 11.734375 -32.328125 L 11.3125 -32.328125 L 11.3125 0 L 4.90625 0 Z M 4.90625 -44.640625 "/></g></g><g style="fill:#0e0005;fill-opacity:1;"><g transform="translate(351.157002, 231.309045)"><path style="stroke:none" d="M 4.90625 0 L 4.90625 -44.640625 L 20.8125 -44.640625 C 24.289062 -44.640625 27.171875 -44.007812 29.453125 -42.75 C 31.734375 -41.488281 33.441406 -39.765625 34.578125 -37.578125 C 35.710938 -35.390625 36.28125 -32.925781 36.28125 -30.1875 C 36.28125 -27.445312 35.707031 -24.984375 34.5625 -22.796875 C 33.425781 -20.609375 31.710938 -18.878906 29.421875 -17.609375 C 27.128906 -16.335938 24.253906 -15.703125 20.796875 -15.703125 L 9.859375 -15.703125 L 9.859375 -21.40625 L 20.1875 -21.40625 C 22.382812 -21.40625 24.164062 -21.785156 25.53125 -22.546875 C 26.894531 -23.316406 27.894531 -24.363281 28.53125 -25.6875 C 29.175781 -27.007812 29.5 -28.507812 29.5 -30.1875 C 29.5 -31.875 29.175781 -33.367188 28.53125 -34.671875 C 27.894531 -35.984375 26.890625 -37.007812 25.515625 -37.75 C 24.140625 -38.5 22.332031 -38.875 20.09375 -38.875 L 11.640625 -38.875 L 11.640625 0 Z M 4.90625 0 "/></g></g><g style="fill:#0e0005;fill-opacity:1;"><g transform="translate(391.659156, 231.309045)"><path style="stroke:none" d="M 8.671875 0 L 1.53125 0 L 17.59375 -44.640625 L 25.375 -44.640625 L 41.4375 0 L 34.296875 0 L 21.671875 -36.53125 L 21.328125 -36.53125 Z M 9.875 -17.484375 L 33.078125 -17.484375 L 33.078125 -11.8125 L 9.875 -11.8125 Z M 9.875 -17.484375 "/></g></g><g style="fill:#0e0005;fill-opacity:1;"><g transform="translate(438.548698, 231.309045)"><path style="stroke:none" d="M 41.984375 -30.125 L 35.1875 -30.125 C 34.925781 -31.582031 34.4375 -32.863281 33.71875 -33.96875 C 33.007812 -35.070312 32.140625 -36.007812 31.109375 -36.78125 C 30.078125 -37.550781 28.925781 -38.128906 27.65625 -38.515625 C 26.382812 -38.910156 25.035156 -39.109375 23.609375 -39.109375 C 21.035156 -39.109375 18.734375 -38.460938 16.703125 -37.171875 C 14.679688 -35.878906 13.082031 -33.984375 11.90625 -31.484375 C 10.738281 -28.984375 10.15625 -25.929688 10.15625 -22.328125 C 10.15625 -18.691406 10.738281 -15.625 11.90625 -13.125 C 13.082031 -10.625 14.6875 -8.734375 16.71875 -7.453125 C 18.75 -6.171875 21.039062 -5.53125 23.59375 -5.53125 C 25 -5.53125 26.335938 -5.722656 27.609375 -6.109375 C 28.878906 -6.492188 30.03125 -7.0625 31.0625 -7.8125 C 32.09375 -8.570312 32.96875 -9.5 33.6875 -10.59375 C 34.40625 -11.695312 34.90625 -12.960938 35.1875 -14.390625 L 41.984375 -14.359375 C 41.617188 -12.171875 40.914062 -10.15625 39.875 -8.3125 C 38.84375 -6.476562 37.515625 -4.894531 35.890625 -3.5625 C 34.273438 -2.226562 32.425781 -1.195312 30.34375 -0.46875 C 28.269531 0.25 26.003906 0.609375 23.546875 0.609375 C 19.679688 0.609375 16.234375 -0.304688 13.203125 -2.140625 C 10.179688 -3.984375 7.800781 -6.617188 6.0625 -10.046875 C 4.332031 -13.472656 3.46875 -17.566406 3.46875 -22.328125 C 3.46875 -27.085938 4.335938 -31.179688 6.078125 -34.609375 C 7.828125 -38.035156 10.210938 -40.664062 13.234375 -42.5 C 16.253906 -44.34375 19.691406 -45.265625 23.546875 -45.265625 C 25.910156 -45.265625 28.117188 -44.925781 30.171875 -44.25 C 32.234375 -43.570312 34.082031 -42.582031 35.71875 -41.28125 C 37.363281 -39.976562 38.722656 -38.390625 39.796875 -36.515625 C 40.878906 -34.648438 41.609375 -32.519531 41.984375 -30.125 Z M 41.984375 -30.125 "/></g></g><g style="fill:#0e0005;fill-opacity:1;"><g transform="translate(489.711072, 231.309045)"><path style="stroke:none" d="M 2.703125 -38.84375 L 2.703125 -44.640625 L 37.25 -44.640625 L 37.25 -38.84375 L 23.328125 -38.84375 L 23.328125 0 L 16.609375 0 L 16.609375 -38.84375 Z M 2.703125 -38.84375 "/></g></g><g style="fill:#0e0005;fill-opacity:1;"><g transform="translate(535.685316, 231.309045)"><path style="stroke:none" d=""/></g></g><g style="fill:#0e0005;fill-opacity:1;"><g transform="translate(557.964246, 231.309045)"><path style="stroke:none" d="M 11.640625 -44.640625 L 11.640625 0 L 4.90625 0 L 4.90625 -44.640625 Z M 11.640625 -44.640625 "/></g></g><g style="fill:#0e0005;fill-opacity:1;"><g transform="translate(580.526531, 231.309045)"><path style="stroke:none" d="M 40.9375 -44.640625 L 40.9375 0 L 34.75 0 L 12.0625 -32.75 L 11.640625 -32.75 L 11.640625 0 L 4.90625 0 L 4.90625 -44.640625 L 11.140625 -44.640625 L 33.859375 -11.859375 L 34.265625 -11.859375 L 34.265625 -44.640625 Z M 40.9375 -44.640625 "/></g></g><g style="fill:#0e0005;fill-opacity:1;"><g transform="translate(632.386474, 231.309045)"><path style="stroke:none" d="M 11.640625 -44.640625 L 11.640625 0 L 4.90625 0 L 4.90625 -44.640625 Z M 11.640625 -44.640625 "/></g></g><g style="fill:#0e0005;fill-opacity:1;"><g transform="translate(654.948781, 231.309045)"><path style="stroke:none" d="M 2.703125 -38.84375 L 2.703125 -44.640625 L 37.25 -44.640625 L 37.25 -38.84375 L 23.328125 -38.84375 L 23.328125 0 L 16.609375 0 L 16.609375 -38.84375 Z M 2.703125 -38.84375 "/></g></g><g style="fill:#0e0005;fill-opacity:1;"><g transform="translate(700.923025, 231.309045)"><path style="stroke:none" d="M 11.640625 -44.640625 L 11.640625 0 L 4.90625 0 L 4.90625 -44.640625 Z M 11.640625 -44.640625 "/></g></g><g style="fill:#0e0005;fill-opacity:1;"><g transform="translate(723.485332, 231.309045)"><path style="stroke:none" d="M 8.671875 0 L 1.53125 0 L 17.59375 -44.640625 L 25.375 -44.640625 L 41.4375 0 L 34.296875 0 L 21.671875 -36.53125 L 21.328125 -36.53125 Z M 9.875 -17.484375 L 33.078125 -17.484375 L 33.078125 -11.8125 L 9.875 -11.8125 Z M 9.875 -17.484375 "/></g></g><g style="fill:#0e0005;fill-opacity:1;"><g transform="translate(767.148237, 231.309045)"><path style="stroke:none" d="M 2.703125 -38.84375 L 2.703125 -44.640625 L 37.25 -44.640625 L 37.25 -38.84375 L 23.328125 -38.84375 L 23.328125 0 L 16.609375 0 L 16.609375 -38.84375 Z M 2.703125 -38.84375 "/></g></g><g style="fill:#0e0005;fill-opacity:1;"><g transform="translate(813.122481, 231.309045)"><path style="stroke:none" d="M 11.640625 -44.640625 L 11.640625 0 L 4.90625 0 L 4.90625 -44.640625 Z M 11.640625 -44.640625 "/></g></g><g style="fill:#0e0005;fill-opacity:1;"><g transform="translate(835.684788, 231.309045)"><path style="stroke:none" d="M 8.8125 -44.640625 L 21.234375 -8.28125 L 21.734375 -8.28125 L 34.15625 -44.640625 L 41.4375 -44.640625 L 25.375 0 L 17.59375 0 L 1.53125 -44.640625 Z M 8.8125 -44.640625 "/></g></g><g style="fill:#0e0005;fill-opacity:1;"><g transform="translate(884.6673, 231.309045)"><path style="stroke:none" d="M 4.90625 0 L 4.90625 -44.640625 L 32.890625 -44.640625 L 32.890625 -38.84375 L 11.640625 -38.84375 L 11.640625 -25.25 L 31.4375 -25.25 L 31.4375 -19.46875 L 11.640625 -19.46875 L 11.640625 -5.796875 L 33.15625 -5.796875 L 33.15625 0 Z M 4.90625 0 "/></g></g><path style=" stroke:none;fill-rule:evenodd;fill:#31b67d;fill-opacity:1;" d="M 95.125 53.796875 C 45.78125 71.75 151.09375 179.175781 184.984375 166.597656 C 200.246094 160.933594 201.015625 139.429688 189.015625 130.308594 C 171.925781 117.253906 152.628906 116.773438 127.957031 75.683594 C 120.46875 63.203125 115.382812 46.40625 95.03125 53.796875 Z M 95.125 53.796875 "/><path style=" stroke:none;fill-rule:evenodd;fill:#17559d;fill-opacity:1;" d="M 19.09375 130.789062 C 22.550781 152.582031 41.941406 143.460938 78.804688 185.703125 C 85.429688 193.285156 86.199219 194.535156 90.613281 203.75 C 107.316406 238.023438 136.886719 221.511719 134.101562 200.199219 C 130.261719 170.148438 81.300781 123.589844 51.542969 110.535156 C 34.355469 103.046875 16.308594 113.222656 19.09375 130.886719 Z M 19.09375 130.789062 "/><g clip-rule="nonzero" clip-path="url(#afd79435ef)"><path style=" stroke:none;fill-rule:evenodd;fill:#31b67d;fill-opacity:1;" d="M 181.238281 35.363281 C 146.101562 45.253906 161.367188 99.207031 198.519531 86.917969 C 228.375 77.027344 216.566406 25.378906 181.238281 35.363281 Z M 181.238281 35.363281 "/></g><g clip-rule="nonzero" clip-path="url(#d30b09c5d9)"><path style=" stroke:none;fill-rule:evenodd;fill:#17559d;fill-opacity:1;" d="M 52.40625 222.183594 C 64.40625 183.78125 10.261719 174.949219 1.910156 204.230469 C -2.988281 221.703125 6.515625 235.621094 19.1875 239.65625 C 34.742188 244.550781 47.988281 236.199219 52.40625 222.183594 Z M 52.40625 222.183594 "/></g></g></svg>