<svg xmlns="http://www.w3.org/2000/svg" xmlns:xlink="http://www.w3.org/1999/xlink" width="1475" zoomAndPan="magnify" viewBox="0 0 1106.25 302.250004" height="403" preserveAspectRatio="xMidYMid meet" version="1.2"><defs><clipPath id="f93570474c"><path d="M 182 38 L 243.394531 38 L 243.394531 101 L 182 101 Z M 182 38 "/></clipPath><clipPath id="546d5765dd"><path d="M 0.996094 210 L 62 210 L 62 272 L 0.996094 272 Z M 0.996094 210 "/></clipPath></defs><g id="34f4dbf5d7"><g style="fill:#ffffff;fill-opacity:1;"><g transform="translate(306.486717, 144.958064)"><path style="stroke:none" d="M 73.546875 -15.296875 L 73.546875 0 L 9.765625 0 L 9.765625 -82.375 L 72.03125 -82.375 L 72.03125 -67.078125 L 28.71875 -67.078125 L 28.71875 -49.1875 L 66.96875 -49.1875 L 66.96875 -34.359375 L 28.71875 -34.359375 L 28.71875 -15.296875 Z M 73.546875 -15.296875 "/></g></g><g style="fill:#ffffff;fill-opacity:1;"><g transform="translate(384.276822, 144.958064)"><path style="stroke:none" d="M 88.96875 -82.375 L 53.3125 0 L 34.484375 0 L -1.0625 -82.375 L 19.53125 -82.375 L 44.609375 -23.53125 L 70.03125 -82.375 Z M 88.96875 -82.375 "/></g></g><g style="fill:#ffffff;fill-opacity:1;"><g transform="translate(469.363373, 144.958064)"><path style="stroke:none" d="M 49.671875 1.40625 C 41.117188 1.40625 33.40625 -0.4375 26.53125 -4.125 C 19.664062 -7.8125 14.289062 -12.890625 10.40625 -19.359375 C 6.53125 -25.828125 4.59375 -33.101562 4.59375 -41.1875 C 4.59375 -49.269531 6.53125 -56.546875 10.40625 -63.015625 C 14.289062 -69.492188 19.664062 -74.578125 26.53125 -78.265625 C 33.40625 -81.953125 41.117188 -83.796875 49.671875 -83.796875 C 58.210938 -83.796875 65.894531 -81.953125 72.71875 -78.265625 C 79.550781 -74.578125 84.925781 -69.492188 88.84375 -63.015625 C 92.769531 -56.546875 94.734375 -49.269531 94.734375 -41.1875 C 94.734375 -33.101562 92.769531 -25.828125 88.84375 -19.359375 C 84.925781 -12.890625 79.550781 -7.8125 72.71875 -4.125 C 65.894531 -0.4375 58.210938 1.40625 49.671875 1.40625 Z M 49.671875 -14.828125 C 54.523438 -14.828125 58.914062 -15.941406 62.84375 -18.171875 C 66.769531 -20.410156 69.847656 -23.53125 72.078125 -27.53125 C 74.316406 -31.539062 75.4375 -36.09375 75.4375 -41.1875 C 75.4375 -46.289062 74.316406 -50.84375 72.078125 -54.84375 C 69.847656 -58.84375 66.769531 -61.957031 62.84375 -64.1875 C 58.914062 -66.425781 54.523438 -67.546875 49.671875 -67.546875 C 44.804688 -67.546875 40.410156 -66.425781 36.484375 -64.1875 C 32.554688 -61.957031 29.472656 -58.84375 27.234375 -54.84375 C 25.003906 -50.84375 23.890625 -46.289062 23.890625 -41.1875 C 23.890625 -36.09375 25.003906 -31.539062 27.234375 -27.53125 C 29.472656 -23.53125 32.554688 -20.410156 36.484375 -18.171875 C 40.410156 -15.941406 44.804688 -14.828125 49.671875 -14.828125 Z M 49.671875 -14.828125 "/></g></g><g style="fill:#ffffff;fill-opacity:1;"><g transform="translate(568.689954, 144.958064)"><path style="stroke:none" d="M 9.765625 -82.375 L 28.828125 -82.375 L 28.828125 -15.53125 L 70.140625 -15.53125 L 70.140625 0 L 9.765625 0 Z M 9.765625 -82.375 "/></g></g><g style="fill:#ffffff;fill-opacity:1;"><g transform="translate(638.712843, 144.958064)"><path style="stroke:none" d="M 46.375 1.40625 C 34.601562 1.40625 25.441406 -1.847656 18.890625 -8.359375 C 12.335938 -14.867188 9.0625 -24.164062 9.0625 -36.25 L 9.0625 -82.375 L 28.125 -82.375 L 28.125 -36.953125 C 28.125 -22.203125 34.242188 -14.828125 46.484375 -14.828125 C 52.453125 -14.828125 57.003906 -16.609375 60.140625 -20.171875 C 63.273438 -23.742188 64.84375 -29.335938 64.84375 -36.953125 L 64.84375 -82.375 L 83.671875 -82.375 L 83.671875 -36.25 C 83.671875 -24.164062 80.394531 -14.867188 73.84375 -8.359375 C 67.289062 -1.847656 58.132812 1.40625 46.375 1.40625 Z M 46.375 1.40625 "/></g></g><g style="fill:#ffffff;fill-opacity:1;"><g transform="translate(730.036782, 144.958064)"><path style="stroke:none" d="M 26.828125 -66.84375 L 0.46875 -66.84375 L 0.46875 -82.375 L 72.265625 -82.375 L 72.265625 -66.84375 L 45.890625 -66.84375 L 45.890625 0 L 26.828125 0 Z M 26.828125 -66.84375 "/></g></g><g style="fill:#ffffff;fill-opacity:1;"><g transform="translate(802.766422, 144.958064)"><path style="stroke:none" d="M 9.765625 -82.375 L 28.828125 -82.375 L 28.828125 0 L 9.765625 0 Z M 9.765625 -82.375 "/></g></g><g style="fill:#ffffff;fill-opacity:1;"><g transform="translate(841.367286, 144.958064)"><path style="stroke:none" d="M 49.671875 1.40625 C 41.117188 1.40625 33.40625 -0.4375 26.53125 -4.125 C 19.664062 -7.8125 14.289062 -12.890625 10.40625 -19.359375 C 6.53125 -25.828125 4.59375 -33.101562 4.59375 -41.1875 C 4.59375 -49.269531 6.53125 -56.546875 10.40625 -63.015625 C 14.289062 -69.492188 19.664062 -74.578125 26.53125 -78.265625 C 33.40625 -81.953125 41.117188 -83.796875 49.671875 -83.796875 C 58.210938 -83.796875 65.894531 -81.953125 72.71875 -78.265625 C 79.550781 -74.578125 84.925781 -69.492188 88.84375 -63.015625 C 92.769531 -56.546875 94.734375 -49.269531 94.734375 -41.1875 C 94.734375 -33.101562 92.769531 -25.828125 88.84375 -19.359375 C 84.925781 -12.890625 79.550781 -7.8125 72.71875 -4.125 C 65.894531 -0.4375 58.210938 1.40625 49.671875 1.40625 Z M 49.671875 -14.828125 C 54.523438 -14.828125 58.914062 -15.941406 62.84375 -18.171875 C 66.769531 -20.410156 69.847656 -23.53125 72.078125 -27.53125 C 74.316406 -31.539062 75.4375 -36.09375 75.4375 -41.1875 C 75.4375 -46.289062 74.316406 -50.84375 72.078125 -54.84375 C 69.847656 -58.84375 66.769531 -61.957031 62.84375 -64.1875 C 58.914062 -66.425781 54.523438 -67.546875 49.671875 -67.546875 C 44.804688 -67.546875 40.410156 -66.425781 36.484375 -64.1875 C 32.554688 -61.957031 29.472656 -58.84375 27.234375 -54.84375 C 25.003906 -50.84375 23.890625 -46.289062 23.890625 -41.1875 C 23.890625 -36.09375 25.003906 -31.539062 27.234375 -27.53125 C 29.472656 -23.53125 32.554688 -20.410156 36.484375 -18.171875 C 40.410156 -15.941406 44.804688 -14.828125 49.671875 -14.828125 Z M 49.671875 -14.828125 "/></g></g><g style="fill:#ffffff;fill-opacity:1;"><g transform="translate(940.693867, 144.958064)"><path style="stroke:none" d="M 85.328125 -82.375 L 85.328125 0 L 69.671875 0 L 28.59375 -50.015625 L 28.59375 0 L 9.765625 0 L 9.765625 -82.375 L 25.53125 -82.375 L 66.5 -32.359375 L 66.5 -82.375 Z M 85.328125 -82.375 "/></g></g><g style="fill:#17559d;fill-opacity:1;"><g transform="translate(302.354096, 258.104746)"><path style="stroke:none" d="M 13.140625 -50.40625 L 13.140625 0 L 5.53125 0 L 5.53125 -50.40625 Z M 13.140625 -50.40625 "/></g></g><g style="fill:#17559d;fill-opacity:1;"><g transform="translate(327.823733, 258.104746)"><path style="stroke:none" d="M 5.53125 -50.40625 L 14.765625 -50.40625 L 30.8125 -11.21875 L 31.40625 -11.21875 L 47.453125 -50.40625 L 56.6875 -50.40625 L 56.6875 0 L 49.453125 0 L 49.453125 -36.484375 L 48.984375 -36.484375 L 34.109375 -0.078125 L 28.109375 -0.078125 L 13.25 -36.5 L 12.78125 -36.5 L 12.78125 0 L 5.53125 0 Z M 5.53125 -50.40625 "/></g></g><g style="fill:#17559d;fill-opacity:1;"><g transform="translate(396.820442, 258.104746)"><path style="stroke:none" d="M 5.53125 0 L 5.53125 -50.40625 L 23.5 -50.40625 C 27.425781 -50.40625 30.675781 -49.691406 33.25 -48.265625 C 35.832031 -46.835938 37.757812 -44.890625 39.03125 -42.421875 C 40.3125 -39.953125 40.953125 -37.175781 40.953125 -34.09375 C 40.953125 -30.988281 40.304688 -28.203125 39.015625 -25.734375 C 37.734375 -23.265625 35.800781 -21.3125 33.21875 -19.875 C 30.632812 -18.4375 27.390625 -17.71875 23.484375 -17.71875 L 11.125 -17.71875 L 11.125 -24.171875 L 22.796875 -24.171875 C 25.273438 -24.171875 27.285156 -24.597656 28.828125 -25.453125 C 30.367188 -26.316406 31.5 -27.492188 32.21875 -28.984375 C 32.9375 -30.484375 33.296875 -32.1875 33.296875 -34.09375 C 33.296875 -36 32.9375 -37.6875 32.21875 -39.15625 C 31.5 -40.632812 30.363281 -41.789062 28.8125 -42.625 C 27.257812 -43.46875 25.21875 -43.890625 22.6875 -43.890625 L 13.140625 -43.890625 L 13.140625 0 Z M 5.53125 0 "/></g></g><g style="fill:#17559d;fill-opacity:1;"><g transform="translate(442.538439, 258.104746)"><path style="stroke:none" d="M 9.796875 0 L 1.71875 0 L 19.859375 -50.40625 L 28.65625 -50.40625 L 46.796875 0 L 38.71875 0 L 24.46875 -41.25 L 24.078125 -41.25 Z M 11.15625 -19.734375 L 37.34375 -19.734375 L 37.34375 -13.34375 L 11.15625 -13.34375 Z M 11.15625 -19.734375 "/></g></g><g style="fill:#17559d;fill-opacity:1;"><g transform="translate(495.466918, 258.104746)"><path style="stroke:none" d="M 47.40625 -34.015625 L 39.734375 -34.015625 C 39.429688 -35.660156 38.878906 -37.101562 38.078125 -38.34375 C 37.273438 -39.59375 36.289062 -40.648438 35.125 -41.515625 C 33.957031 -42.390625 32.65625 -43.046875 31.21875 -43.484375 C 29.78125 -43.929688 28.257812 -44.15625 26.65625 -44.15625 C 23.75 -44.15625 21.148438 -43.425781 18.859375 -41.96875 C 16.578125 -40.507812 14.773438 -38.367188 13.453125 -35.546875 C 12.128906 -32.722656 11.46875 -29.273438 11.46875 -25.203125 C 11.46875 -21.097656 12.128906 -17.632812 13.453125 -14.8125 C 14.773438 -11.988281 16.582031 -9.851562 18.875 -8.40625 C 21.175781 -6.96875 23.757812 -6.25 26.625 -6.25 C 28.21875 -6.25 29.734375 -6.46875 31.171875 -6.90625 C 32.609375 -7.34375 33.910156 -7.984375 35.078125 -8.828125 C 36.242188 -9.679688 37.234375 -10.726562 38.046875 -11.96875 C 38.859375 -13.207031 39.421875 -14.632812 39.734375 -16.25 L 47.40625 -16.21875 C 47 -13.738281 46.207031 -11.460938 45.03125 -9.390625 C 43.851562 -7.316406 42.347656 -5.523438 40.515625 -4.015625 C 38.691406 -2.515625 36.609375 -1.351562 34.265625 -0.53125 C 31.921875 0.28125 29.359375 0.6875 26.578125 0.6875 C 22.210938 0.6875 18.320312 -0.347656 14.90625 -2.421875 C 11.5 -4.492188 8.8125 -7.46875 6.84375 -11.34375 C 4.882812 -15.21875 3.90625 -19.835938 3.90625 -25.203125 C 3.90625 -30.585938 4.890625 -35.210938 6.859375 -39.078125 C 8.835938 -42.941406 11.53125 -45.910156 14.9375 -47.984375 C 18.351562 -50.054688 22.234375 -51.09375 26.578125 -51.09375 C 29.253906 -51.09375 31.753906 -50.710938 34.078125 -49.953125 C 36.398438 -49.191406 38.488281 -48.078125 40.34375 -46.609375 C 42.195312 -45.140625 43.726562 -43.347656 44.9375 -41.234375 C 46.15625 -39.128906 46.976562 -36.722656 47.40625 -34.015625 Z M 47.40625 -34.015625 "/></g></g><g style="fill:#17559d;fill-opacity:1;"><g transform="translate(553.218931, 258.104746)"><path style="stroke:none" d="M 3.046875 -43.859375 L 3.046875 -50.40625 L 42.0625 -50.40625 L 42.0625 -43.859375 L 26.34375 -43.859375 L 26.34375 0 L 18.75 0 L 18.75 -43.859375 Z M 3.046875 -43.859375 "/></g></g><g style="fill:#17559d;fill-opacity:1;"><g transform="translate(605.114832, 258.104746)"><path style="stroke:none" d=""/></g></g><g style="fill:#17559d;fill-opacity:1;"><g transform="translate(630.264591, 258.104746)"><path style="stroke:none" d="M 13.140625 -50.40625 L 13.140625 0 L 5.53125 0 L 5.53125 -50.40625 Z M 13.140625 -50.40625 "/></g></g><g style="fill:#17559d;fill-opacity:1;"><g transform="translate(655.734228, 258.104746)"><path style="stroke:none" d="M 46.21875 -50.40625 L 46.21875 0 L 39.234375 0 L 13.609375 -36.96875 L 13.140625 -36.96875 L 13.140625 0 L 5.53125 0 L 5.53125 -50.40625 L 12.578125 -50.40625 L 38.21875 -13.390625 L 38.6875 -13.390625 L 38.6875 -50.40625 Z M 46.21875 -50.40625 "/></g></g><g style="fill:#17559d;fill-opacity:1;"><g transform="translate(714.273616, 258.104746)"><path style="stroke:none" d="M 13.140625 -50.40625 L 13.140625 0 L 5.53125 0 L 5.53125 -50.40625 Z M 13.140625 -50.40625 "/></g></g><g style="fill:#17559d;fill-opacity:1;"><g transform="translate(739.743253, 258.104746)"><path style="stroke:none" d="M 3.046875 -43.859375 L 3.046875 -50.40625 L 42.0625 -50.40625 L 42.0625 -43.859375 L 26.34375 -43.859375 L 26.34375 0 L 18.75 0 L 18.75 -43.859375 Z M 3.046875 -43.859375 "/></g></g><g style="fill:#17559d;fill-opacity:1;"><g transform="translate(791.639155, 258.104746)"><path style="stroke:none" d="M 13.140625 -50.40625 L 13.140625 0 L 5.53125 0 L 5.53125 -50.40625 Z M 13.140625 -50.40625 "/></g></g><g style="fill:#17559d;fill-opacity:1;"><g transform="translate(817.108792, 258.104746)"><path style="stroke:none" d="M 9.796875 0 L 1.71875 0 L 19.859375 -50.40625 L 28.65625 -50.40625 L 46.796875 0 L 38.71875 0 L 24.46875 -41.25 L 24.078125 -41.25 Z M 11.15625 -19.734375 L 37.34375 -19.734375 L 37.34375 -13.34375 L 11.15625 -13.34375 Z M 11.15625 -19.734375 "/></g></g><g style="fill:#17559d;fill-opacity:1;"><g transform="translate(866.394356, 258.104746)"><path style="stroke:none" d="M 3.046875 -43.859375 L 3.046875 -50.40625 L 42.0625 -50.40625 L 42.0625 -43.859375 L 26.34375 -43.859375 L 26.34375 0 L 18.75 0 L 18.75 -43.859375 Z M 3.046875 -43.859375 "/></g></g><g style="fill:#17559d;fill-opacity:1;"><g transform="translate(918.290222, 258.104746)"><path style="stroke:none" d="M 13.140625 -50.40625 L 13.140625 0 L 5.53125 0 L 5.53125 -50.40625 Z M 13.140625 -50.40625 "/></g></g><g style="fill:#17559d;fill-opacity:1;"><g transform="translate(943.75986, 258.104746)"><path style="stroke:none" d="M 9.9375 -50.40625 L 23.96875 -9.359375 L 24.546875 -9.359375 L 38.5625 -50.40625 L 46.796875 -50.40625 L 28.65625 0 L 19.859375 0 L 1.71875 -50.40625 Z M 9.9375 -50.40625 "/></g></g><g style="fill:#17559d;fill-opacity:1;"><g transform="translate(999.051383, 258.104746)"><path style="stroke:none" d="M 5.53125 0 L 5.53125 -50.40625 L 37.140625 -50.40625 L 37.140625 -43.859375 L 13.140625 -43.859375 L 13.140625 -28.5 L 35.5 -28.5 L 35.5 -21.984375 L 13.140625 -21.984375 L 13.140625 -6.546875 L 37.4375 -6.546875 L 37.4375 0 Z M 5.53125 0 "/></g></g><path style=" stroke:none;fill-rule:evenodd;fill:#ffffff;fill-opacity:1;" d="M 107.574219 60.722656 C 51.902344 80.976562 170.71875 202.175781 208.949219 187.988281 C 226.171875 181.597656 227.039062 157.335938 213.5 147.046875 C 194.21875 132.316406 172.449219 131.773438 144.613281 85.417969 C 136.167969 71.335938 130.425781 52.382812 107.464844 60.722656 Z M 107.574219 60.722656 "/><path style=" stroke:none;fill-rule:evenodd;fill:#17559d;fill-opacity:1;" d="M 21.789062 147.585938 C 25.691406 172.175781 47.570312 161.886719 89.160156 209.542969 C 96.632812 218.097656 97.5 219.507812 102.480469 229.902344 C 121.328125 268.570312 154.6875 249.941406 151.546875 225.894531 C 147.214844 191.996094 91.976562 139.464844 58.398438 124.734375 C 39.011719 116.285156 18.648438 127.765625 21.789062 147.695312 Z M 21.789062 147.585938 "/><g clip-rule="nonzero" clip-path="url(#f93570474c)"><path style=" stroke:none;fill-rule:evenodd;fill:#ffffff;fill-opacity:1;" d="M 204.726562 39.925781 C 165.085938 51.082031 182.304688 111.953125 224.222656 98.089844 C 257.90625 86.933594 244.585938 28.664062 204.726562 39.925781 Z M 204.726562 39.925781 "/></g><g clip-rule="nonzero" clip-path="url(#546d5765dd)"><path style=" stroke:none;fill-rule:evenodd;fill:#17559d;fill-opacity:1;" d="M 59.375 250.699219 C 72.914062 207.375 11.824219 197.410156 2.402344 230.445312 C -3.121094 250.15625 7.601562 265.863281 21.898438 270.410156 C 39.445312 275.9375 54.390625 266.511719 59.375 250.699219 Z M 59.375 250.699219 "/></g></g></svg>